<svg xmlns="http://www.w3.org/2000/svg" width="512" height="512" viewBox="0 0 1024 1024" xmlns:c2pa="http://c2pa.org/manifest"><metadata><c2pa:manifest>AAAWgmp1bWIAAAAeanVtZGMycGEAEQAQgAAAqgA4m3EDYzJwYQAAABZcanVtYgAAAEdqdW1kYzJtYQARABCAAACqADibcQN1cm46YzJwYTo5ZDg5NTYyYS1mNTdlLTRjOGQtYTA3ZC1hMjczNTk1Y2Y3M2MAAAADl2p1bWIAAAApanVtZGMyYXMAEQAQgAAAqgA4m3EDYzJwYS5hc3NlcnRpb25zAAAAALxqdW1iAAAARGp1bWRjYm9yABEAEIAAAKoAOJtxE2MycGEuaW5ncmVkaWVudC52MwAAAAAYYzJzaCnGWgBwI7ghNuOZbTO8LtkAAABwY2JvcqNpZGM6Zm9ybWF0bWltYWdlL3N2Zyt4bWxqaW5zdGFuY2VJRHgseG1wOmlpZDo2YTNiMTM1Ni1lNGU0LTQ5NzQtOTg0YS1lNGQ3ZTJmZTA5OTFscmVsYXRpb25zaGlwaHBhcmVudE9mAAAB4mp1bWIAAABBanVtZGNib3IAEQAQgAAAqgA4m3ETYzJwYS5hY3Rpb25zLnYyAAAAABhjMnNo6f+nf06zcHeXIu7OPdgSJAAAAZljYm9yomdhY3Rpb25zgqJmYWN0aW9ua2MycGEub3BlbmVkanBhcmFtZXRlcnOha2luZ3JlZGllbnRzgaJjdXJseC1zZWxmI2p1bWJmPWMycGEuYXNzZXJ0aW9ucy9jMnBhLmluZ3JlZGllbnQudjNkaGFzaFgg/tJFEHI6UkU8iTQdoi44x33i8NDbc4kxGlrO9uMYVgykZmFjdGlvbngdY29tLmFudGhyb3BpYy5jbGF1ZGUucHJvdmlkZWRqcGFyYW1ldGVyc6F4H2NvbS5hbnRocm9waWMub3JpZ2luLWNvbmZpZGVuY2VndW5rbm93bmtkZXNjcmlwdGlvbnhmQ2xhdWRlIHByb3ZpZGVkIHRoaXMgZmlsZSBhdCB0aGUgcmVxdWVzdCBvZiBhIHVzZXIgYW5kIG1heSBoYXZlIGNyZWF0ZWQgb3IgbW9kaWZpZWQgdGhlIGZpbGUgY29udGVudHMubXNvZnR3YXJlQWdlbnShZG5hbWVmQ2xhdWRlcmFsbEFjdGlvbnNJbmNsdWRlZPUAAADIanVtYgAAAEBqdW1kY2JvcgARABCAAACqADibcRNjMnBhLmhhc2guZGF0YQAAAAAYYzJzaDnTTwvG5RLtTyEB0lZwj/0AAACAY2JvcqVjYWxnZnNoYTI1NmNwYWRNAAAAAAAAAAAAAAAAAGRoYXNoWCAZxdQjdmDrp6HuKfkqiRp8zRklxFuhWLTUsfA41Ejq72RuYW1lbmp1bWJmIG1hbmlmZXN0amV4Y2x1c2lvbnOBomVzdGFydBiYZmxlbmd0aBkeBAAAAj5qdW1iAAAAJ2p1bWRjMmNsABEAEIAAAKoAOJtxA2MycGEuY2xhaW0udjIAAAACD2Nib3KlY2FsZ2ZzaGEyNTZpc2lnbmF0dXJleE1zZWxmI2p1bWJmPS9jMnBhL3VybjpjMnBhOjlkODk1NjJhLWY1N2UtNGM4ZC1hMDdkLWEyNzM1OTVjZjczYy9jMnBhLnNpZ25hdHVyZWppbnN0YW5jZUlEeCx4bXA6aWlkOjlhODJhMmJmLWE3N2MtNDFkZS05ZTMzLTRlNmFhZTYzMmJjN3JjcmVhdGVkX2Fzc2VydGlvbnODomN1cmx4LXNlbGYjanVtYmY9YzJwYS5hc3NlcnRpb25zL2MycGEuaW5ncmVkaWVudC52M2RoYXNoWCD+0kUQcjpSRTyJNB2iLjjHfeLw0NtziTEaWs724xhWDKJjdXJseCpzZWxmI2p1bWJmPWMycGEuYXNzZXJ0aW9ucy9jMnBhLmFjdGlvbnMudjJkaGFzaFgg0XUY3SN3rhig7Ovhpzgu8dFkv+NyeijmS1rbgHIXjtqiY3VybHgpc2VsZiNqdW1iZj1jMnBhLmFzc2VydGlvbnMvYzJwYS5oYXNoLmRhdGFkaGFzaFggbNskMntTm5qNK1FW3l31m2pZiBV0TsItWL1I4p+R6LV0Y2xhaW1fZ2VuZXJhdG9yX2luZm+jZG5hbWVvQW50aHJvcGljIEZpbGVzZ3ZlcnNpb25lMS4wLjBrc3BlY1ZlcnNpb25lMi40LjAAABA4anVtYgAAAChqdW1kYzJjcwARABCAAACqADibcQNjMnBhLnNpZ25hdHVyZQAAABAIY2JvctKEWQISogEmGCFZAgowggIGMIIBjaADAgECAhRA5aAK7sI50L64g/oGQgU9Z1UTADAKBggqhkjOPQQDAzBJMRcwFQYDVQQKEw5BbnRocm9waWMsIFBCQzEuMCwGA1UEAxMlQW50aHJvcGljIENvbnRlbnQgQ3JlZGVudGlhbHMgUm9vdCBDQTAeFw0yNjA4MDcxODQzNTZaFw0yODA4MDYxOTQzNTZaMEQxFzAVBgNVBAoTDkFudGhyb3BpYywgUEJDMSkwJwYDVQQDEyBBbnRocm9waWMgQ2xhdWRlIENvbnRlbnQgU2lnbmluZzBZMBMGByqGSM49AgEGCCqGSM49AwEHA0IABJh6CmvLUBgFFNU0vUKlOVtE6djd17L5SuwX0LemFisBM3dkd/3cyjxFA3Qo5S46fX0/ihY0VZ7mfb9KF703t5OjWDBWMA4GA1UdDwEB/wQEAwIHgDAVBgNVHSUEDjAMBgorBgEEAYPoXgIBMAwGA1UdEwEB/wQCMAAwHwYDVR0jBBgwFoAUzlHiBIFOZFsj+OPEz5o+nMHXXMIwCgYIKoZIzj0EAwMDZwAwZAIwMXMdFJ4BetLLVY7ORuE9noqbbAZOZn/aArXyTwFAZfKrPzxF2vPoJNf1+UCdg1XGAjBwX1zd9WGqYkqmL5SFqw1QySjr1zJfpJM9+1rdDwSPLMOPOjKuiXjoU/pUUeG9RwmhY3BhZFkNngAAAAAAAAAAAAAAAAAAAAAAAAAAAAAAAAAAAAAAAAAAAAAAAAAAAAAAAAAAAAAAAAAAAAAAAAAAAAAAAAAAAAAAAAAAAAAAAAAAAAAAAAAAAAAAAAAAAAAAAAAAAAAAAAAAAAAAAAAAAAAAAAAAAAAAAAAAAAAAAAAAAAAAAAAAAAAAAAAAAAAAAAAAAAAAAAAAAAAAAAAAAAAAAAAAAAAAAAAAAAAAAAAAAAAAAAAAAAAAAAAAAAAAAAAAAAAAAAAAAAAAAAAAAAAAAAAAAAAAAAAAAAAAAAAAAAAAAAAAAAAAAAAAAAAAAAAAAAAAAAAAAAAAAAAAAAAAAAAAAAAAAAAAAAAAAAAAAAAAAAAAAAAAAAAAAAAAAAAAAAAAAAAAAAAAAAAAAAAAAAAAAAAAAAAAAAAAAAAAAAAAAAAAAAAAAAAAAAAAAAAAAAAAAAAAAAAAAAAAAAAAAAAAAAAAAAAAAAAAAAAAAAAAAAAAAAAAAAAAAAAAAAAAAAAAAAAAAAAAAAAAAAAAAAAAAAAAAAAAAAAAAAAAAAAAAAAAAAAAAAAAAAAAAAAAAAAAAAAAAAAAAAAAAAAAAAAAAAAAAAAAAAAAAAAAAAAAAAAAAAAAAAAAAAAAAAAAAAAAAAAAAAAAAAAAAAAAAAAAAAAAAAAAAAAAAAAAAAAAAAAAAAAAAAAAAAAAAAAAAAAAAAAAAAAAAAAAAAAAAAAAAAAAAAAAAAAAAAAAAAAAAAAAAAAAAAAAAAAAAAAAAAAAAAAAAAAAAAAAAAAAAAAAAAAAAAAAAAAAAAAAAAAAAAAAAAAAAAAAAAAAAAAAAAAAAAAAAAAAAAAAAAAAAAAAAAAAAAAAAAAAAAAAAAAAAAAAAAAAAAAAAAAAAAAAAAAAAAAAAAAAAAAAAAAAAAAAAAAAAAAAAAAAAAAAAAAAAAAAAAAAAAAAAAAAAAAAAAAAAAAAAAAAAAAAAAAAAAAAAAAAAAAAAAAAAAAAAAAAAAAAAAAAAAAAAAAAAAAAAAAAAAAAAAAAAAAAAAAAAAAAAAAAAAAAAAAAAAAAAAAAAAAAAAAAAAAAAAAAAAAAAAAAAAAAAAAAAAAAAAAAAAAAAAAAAAAAAAAAAAAAAAAAAAAAAAAAAAAAAAAAAAAAAAAAAAAAAAAAAAAAAAAAAAAAAAAAAAAAAAAAAAAAAAAAAAAAAAAAAAAAAAAAAAAAAAAAAAAAAAAAAAAAAAAAAAAAAAAAAAAAAAAAAAAAAAAAAAAAAAAAAAAAAAAAAAAAAAAAAAAAAAAAAAAAAAAAAAAAAAAAAAAAAAAAAAAAAAAAAAAAAAAAAAAAAAAAAAAAAAAAAAAAAAAAAAAAAAAAAAAAAAAAAAAAAAAAAAAAAAAAAAAAAAAAAAAAAAAAAAAAAAAAAAAAAAAAAAAAAAAAAAAAAAAAAAAAAAAAAAAAAAAAAAAAAAAAAAAAAAAAAAAAAAAAAAAAAAAAAAAAAAAAAAAAAAAAAAAAAAAAAAAAAAAAAAAAAAAAAAAAAAAAAAAAAAAAAAAAAAAAAAAAAAAAAAAAAAAAAAAAAAAAAAAAAAAAAAAAAAAAAAAAAAAAAAAAAAAAAAAAAAAAAAAAAAAAAAAAAAAAAAAAAAAAAAAAAAAAAAAAAAAAAAAAAAAAAAAAAAAAAAAAAAAAAAAAAAAAAAAAAAAAAAAAAAAAAAAAAAAAAAAAAAAAAAAAAAAAAAAAAAAAAAAAAAAAAAAAAAAAAAAAAAAAAAAAAAAAAAAAAAAAAAAAAAAAAAAAAAAAAAAAAAAAAAAAAAAAAAAAAAAAAAAAAAAAAAAAAAAAAAAAAAAAAAAAAAAAAAAAAAAAAAAAAAAAAAAAAAAAAAAAAAAAAAAAAAAAAAAAAAAAAAAAAAAAAAAAAAAAAAAAAAAAAAAAAAAAAAAAAAAAAAAAAAAAAAAAAAAAAAAAAAAAAAAAAAAAAAAAAAAAAAAAAAAAAAAAAAAAAAAAAAAAAAAAAAAAAAAAAAAAAAAAAAAAAAAAAAAAAAAAAAAAAAAAAAAAAAAAAAAAAAAAAAAAAAAAAAAAAAAAAAAAAAAAAAAAAAAAAAAAAAAAAAAAAAAAAAAAAAAAAAAAAAAAAAAAAAAAAAAAAAAAAAAAAAAAAAAAAAAAAAAAAAAAAAAAAAAAAAAAAAAAAAAAAAAAAAAAAAAAAAAAAAAAAAAAAAAAAAAAAAAAAAAAAAAAAAAAAAAAAAAAAAAAAAAAAAAAAAAAAAAAAAAAAAAAAAAAAAAAAAAAAAAAAAAAAAAAAAAAAAAAAAAAAAAAAAAAAAAAAAAAAAAAAAAAAAAAAAAAAAAAAAAAAAAAAAAAAAAAAAAAAAAAAAAAAAAAAAAAAAAAAAAAAAAAAAAAAAAAAAAAAAAAAAAAAAAAAAAAAAAAAAAAAAAAAAAAAAAAAAAAAAAAAAAAAAAAAAAAAAAAAAAAAAAAAAAAAAAAAAAAAAAAAAAAAAAAAAAAAAAAAAAAAAAAAAAAAAAAAAAAAAAAAAAAAAAAAAAAAAAAAAAAAAAAAAAAAAAAAAAAAAAAAAAAAAAAAAAAAAAAAAAAAAAAAAAAAAAAAAAAAAAAAAAAAAAAAAAAAAAAAAAAAAAAAAAAAAAAAAAAAAAAAAAAAAAAAAAAAAAAAAAAAAAAAAAAAAAAAAAAAAAAAAAAAAAAAAAAAAAAAAAAAAAAAAAAAAAAAAAAAAAAAAAAAAAAAAAAAAAAAAAAAAAAAAAAAAAAAAAAAAAAAAAAAAAAAAAAAAAAAAAAAAAAAAAAAAAAAAAAAAAAAAAAAAAAAAAAAAAAAAAAAAAAAAAAAAAAAAAAAAAAAAAAAAAAAAAAAAAAAAAAAAAAAAAAAAAAAAAAAAAAAAAAAAAAAAAAAAAAAAAAAAAAAAAAAAAAAAAAAAAAAAAAAAAAAAAAAAAAAAAAAAAAAAAAAAAAAAAAAAAAAAAAAAAAAAAAAAAAAAAAAAAAAAAAAAAAAAAAAAAAAAAAAAAAAAAAAAAAAAAAAAAAAAAAAAAAAAAAAAAAAAAAAAAAAAAAAAAAAAAAAAAAAAAAAAAAAAAAAAAAAAAAAAAAAAAAAAAAAAAAAAAAAAAAAAAAAAAAAAAAAAAAAAAAAAAAAAAAAAAAAAAAAAAAAAAAAAAAAAAAAAAAAAAAAAAAAAAAAAAAAAAAAAAAAAAAAAAAAAAAAAAAAAAAAAAAAAAAAAAAAAAAAAAAAAAAAAAAAAAAAAAAAAAAAAAAAAAAAAAAAAAAAAAAAAAAAAAAAAAAAAAAAAAAAAAAAAAAAAAAAAAAAAAAAAAAAAAAAAAAAAAAAAAAAAAAAAAAAAAAAAAAAAAAAAAAAAAAAAAAAAAAAAAAAAAAAAAAAAAAAAAAAAAAAAAAAAAAAAAAAAAAAAAAAAAAAAAAAAAAAAAAAAAAAAAAAAAAAAAAAAAAAAAAAAAAAAAAAAAAAAAAAAAAAAAAAAAAAAAAAAAAAAAAAAAAAAAAAAAAAAAAAAAAAAAAAAAAAAAAAAAAAAAAAAAAAAAAAAAAAAAAAAAAAAAAAAAAAAAAAAAAAAAAAAAAAAAAAAAAAAAAAAAAAAAAAAAAAAAAAAAAAAAAAAAAAAAAAAAAAAAAAAAAAAAAAAAAAAAAAAAAAAAAAAAAAAAAAAAAAAAAAAAAAAAAAAAAAAAAAAAAAAAAAAAAAAAAAAAAAAAAAAAAAAAAAAAAAAAAAAAAAAAAAAAAAAAAAAAAAAAAAAAAAAAAAAAAAAAAAAAAAAAAAAAAAAAAAAAAAAAAAAAAAAAAAAAAAAAAAAAAAAAAAAAAAAAAAAAAAAAAAAAAAAAAAAAAAAAAAAAAAAAAAAAAAAAAAAAAAAAAAAAAAAAAAAAAAAAAAAAAAAAAAAAAAAAAAAAAAAAAAAAAAAAAAAAAAAAAAAAAAAAAAAAAAAAAAAAAAAAAAAAAAAAAAAAAAAAAAAAAAAAAAAAAAAAAAAAAAAAAAAAAAAAAAAAAAAAAAAAAAAAAAAAAAAAAAAAAAAAAAAAAAAAAAAAAAAAAAAAAAAAAAAAAAAAAAAAAAAAAAAAAAAAAAAAAAAAAAAAAAAAAAAAAAAAAAAAAAAAAAAAAAAAAAAAAAAAAAAAAAAAAAAAAAAAAAAAAAAAAAAAAAAAAAAAAAAAAAAAAAAAAAAAAAAAAAAAAAAAAAAAAAAAAAAAAAAAAAAAAAAAAAAAAAAAAAAAAAAAAAAAAAAAAAAAAAAAAAAAAAAAAAAAAAAAAAAAAAAAAAAAAAAAAAAAAAAAAAAAAAAAAAAAAAAAAAAAAAAAAAAAAAAAAAAAAAAAAAAAAAAAAAAAAAAAAAAAAAAAAAAAAAAAAAAAAAAAAAAAAAAAAAAAAAAAAAAAAAAAAAAAAAAAAAAAAAAAAAAAAAAAAAAAAAAAAAAAAAAAAAAAAAAAAAAAAAAAAAAAAAAAAAAAAAAAAAAAAAAAAAAAAAAAAAAAAAAAAAAAAAAAAAAAAAAAAAAAAAAAAAAAAAAAAAAAAAAAAAAAAAAAAAAAAAAAAAAAAAAAAAAAAAAAAAAAAAAAAAAAAAAAAAAAAAAAAAAAAAAAAAAAAAAAAAAAAAAAAAAAAAAAAAAAAAAAAAAAAAAAAAAAAAAAAAAAAAAAAAAAAAAAAAAAAAPZYQNFhw9dIlMBjSQpHUTiYBdxFtCuy11gygSwU74Bdiy6dSG53w99qFiABLpWj3wtSWfuhBPBsiPgTV/mL+W1RZME=</c2pa:manifest></metadata><defs><linearGradient id="g" gradientUnits="userSpaceOnUse" x1="0" y1="160" x2="0" y2="860"><stop offset="0" stop-color="#343434"/><stop offset="1" stop-color="#232323"/></linearGradient><clipPath id="c_l1"><path d="M347.3,196.1 L137.3,781.1 A56.0,56.0 0 0 0 242.7,818.9 L452.7,233.9 A56.0,56.0 0 0 0 347.3,196.1 Z M371.8,204.9 L161.8,789.9 A30.0,30.0 0 0 0 218.2,810.1 L428.2,225.1 A30.0,30.0 0 0 0 371.8,204.9 Z" clip-rule="evenodd"/></clipPath><clipPath id="c_l2"><path d="M347.3,233.9 L557.3,818.9 A56.0,56.0 0 0 0 662.7,781.1 L452.7,196.1 A56.0,56.0 0 0 0 347.3,233.9 Z M371.8,225.1 L581.8,810.1 A30.0,30.0 0 0 0 638.2,789.9 L428.2,204.9 A30.0,30.0 0 0 0 371.8,225.1 Z" clip-rule="evenodd"/></clipPath><clipPath id="c_l3"><path d="M662.7,818.9 L872.7,233.9 A56.0,56.0 0 0 0 767.3,196.1 L557.3,781.1 A56.0,56.0 0 0 0 662.7,818.9 Z M638.2,810.1 L848.2,225.1 A30.0,30.0 0 0 0 791.8,204.9 L581.8,789.9 A30.0,30.0 0 0 0 638.2,810.1 Z" clip-rule="evenodd"/></clipPath><clipPath id="c_bar"><path d="M262.0,641.0 L548.0,641.0 A56.0,56.0 0 0 0 548.0,529.0 L262.0,529.0 A56.0,56.0 0 0 0 262.0,641.0 Z M262.0,615.0 L548.0,615.0 A30.0,30.0 0 0 0 548.0,555.0 L262.0,555.0 A30.0,30.0 0 0 0 262.0,615.0 Z" clip-rule="evenodd"/></clipPath><clipPath id="h0p"><polygon points="1413.6,-2608.6 -613.6,3038.6 -3437.2,2025.0 -1410.0,-3622.2"/></clipPath><clipPath id="h0n"><polygon points="1413.6,-2608.6 -613.6,3038.6 2210.0,4052.2 4237.2,-1595.0"/></clipPath><clipPath id="h1p"><polygon points="-403.6,3623.6 1623.6,-2023.6 4447.2,-1010.0 2420.0,4637.2"/></clipPath><clipPath id="h1n"><polygon points="-403.6,3623.6 1623.6,-2023.6 -1200.0,-3037.2 -3227.2,2610.0"/></clipPath><clipPath id="h2p"><polygon points="-2738.0,585.0 3262.0,585.0 3262.0,3585.0 -2738.0,3585.0"/></clipPath><clipPath id="h2n"><polygon points="-2738.0,585.0 3262.0,585.0 3262.0,-2415.0 -2738.0,-2415.0"/></clipPath><clipPath id="h3p"><polygon points="-2738.0,585.0 3262.0,585.0 3262.0,3585.0 -2738.0,3585.0"/></clipPath><clipPath id="h3n"><polygon points="-2738.0,585.0 3262.0,585.0 3262.0,-2415.0 -2738.0,-2415.0"/></clipPath></defs><rect width="1024" height="1024" fill="#050505"/><g transform="translate(512,512) scale(0.92) translate(-505,-507)"><defs><linearGradient id="gp1" gradientUnits="userSpaceOnUse" x1="610.0" y1="872.0" x2="610.0" y2="888.0"><stop offset="0" stop-color="#74151A" stop-opacity="0.85"/><stop offset="0.35" stop-color="#74151A" stop-opacity="0.38"/><stop offset="1" stop-color="#74151A" stop-opacity="0"/></linearGradient><linearGradient id="gl1" gradientUnits="userSpaceOnUse" x1="490.0" y1="872.0" x2="730.0" y2="872.0"><stop offset="0" stop-color="#000"/><stop offset="0.300" stop-color="#fff"/><stop offset="0.700" stop-color="#fff"/><stop offset="1" stop-color="#000"/></linearGradient><mask id="mk1" maskUnits="userSpaceOnUse" x="-2000" y="-2000" width="6000" height="6000"><polygon points="490.0,872.0 730.0,872.0 730.0,888.0 490.0,888.0" fill="url(#gl1)"/></mask></defs><g mask="url(#mk1)"><line x1="490.0" y1="880.0" x2="730.0" y2="880.0" stroke="url(#gp1)" stroke-width="16"/></g><defs><linearGradient id="gp2" gradientUnits="userSpaceOnUse" x1="400.0" y1="143.0" x2="400.0" y2="127.0"><stop offset="0" stop-color="#74151A" stop-opacity="0.85"/><stop offset="0.35" stop-color="#74151A" stop-opacity="0.38"/><stop offset="1" stop-color="#74151A" stop-opacity="0"/></linearGradient><linearGradient id="gl2" gradientUnits="userSpaceOnUse" x1="310.0" y1="143.0" x2="490.0" y2="143.0"><stop offset="0" stop-color="#000"/><stop offset="0.300" stop-color="#fff"/><stop offset="0.700" stop-color="#fff"/><stop offset="1" stop-color="#000"/></linearGradient><mask id="mk2" maskUnits="userSpaceOnUse" x="-2000" y="-2000" width="6000" height="6000"><polygon points="310.0,143.0 490.0,143.0 490.0,127.0 310.0,127.0" fill="url(#gl2)"/></mask></defs><g mask="url(#mk2)"><line x1="310.0" y1="135.0" x2="490.0" y2="135.0" stroke="url(#gp2)" stroke-width="16"/></g><path d="M347.3,196.1 L137.3,781.1 A56.0,56.0 0 0 0 242.7,818.9 L452.7,233.9 A56.0,56.0 0 0 0 347.3,196.1 Z M371.8,204.9 L161.8,789.9 A30.0,30.0 0 0 0 218.2,810.1 L428.2,225.1 A30.0,30.0 0 0 0 371.8,204.9 Z" fill="url(#g)" fill-rule="evenodd"/><path d="M347.3,233.9 L557.3,818.9 A56.0,56.0 0 0 0 662.7,781.1 L452.7,196.1 A56.0,56.0 0 0 0 347.3,233.9 Z M371.8,225.1 L581.8,810.1 A30.0,30.0 0 0 0 638.2,789.9 L428.2,204.9 A30.0,30.0 0 0 0 371.8,225.1 Z" fill="#4e1116" fill-rule="evenodd"/><path d="M662.7,818.9 L872.7,233.9 A56.0,56.0 0 0 0 767.3,196.1 L557.3,781.1 A56.0,56.0 0 0 0 662.7,818.9 Z M638.2,810.1 L848.2,225.1 A30.0,30.0 0 0 0 791.8,204.9 L581.8,789.9 A30.0,30.0 0 0 0 638.2,810.1 Z" fill="url(#g)" fill-rule="evenodd"/><path d="M262.0,641.0 L548.0,641.0 A56.0,56.0 0 0 0 548.0,529.0 L262.0,529.0 A56.0,56.0 0 0 0 262.0,641.0 Z M262.0,615.0 L548.0,615.0 A30.0,30.0 0 0 0 548.0,555.0 L262.0,555.0 A30.0,30.0 0 0 0 262.0,615.0 Z" fill="url(#g)" fill-rule="evenodd"/><g clip-path="url(#c_l2)"><g clip-path="url(#h0p)"><path d="M347.3,196.1 L137.3,781.1 A56.0,56.0 0 0 0 242.7,818.9 L452.7,233.9 A56.0,56.0 0 0 0 347.3,196.1 Z" fill="none" stroke="#050505" stroke-width="28"/><path d="M371.8,204.9 L161.8,789.9 A30.0,30.0 0 0 0 218.2,810.1 L428.2,225.1 A30.0,30.0 0 0 0 371.8,204.9 Z" fill="none" stroke="#050505" stroke-width="28"/><path d="M347.3,196.1 L137.3,781.1 A56.0,56.0 0 0 0 242.7,818.9 L452.7,233.9 A56.0,56.0 0 0 0 347.3,196.1 Z M371.8,204.9 L161.8,789.9 A30.0,30.0 0 0 0 218.2,810.1 L428.2,225.1 A30.0,30.0 0 0 0 371.8,204.9 Z" fill="url(#g)" fill-rule="evenodd"/></g></g><g clip-path="url(#c_l1)"><g clip-path="url(#h0n)"><path d="M347.3,233.9 L557.3,818.9 A56.0,56.0 0 0 0 662.7,781.1 L452.7,196.1 A56.0,56.0 0 0 0 347.3,233.9 Z" fill="none" stroke="#050505" stroke-width="28"/><path d="M371.8,225.1 L581.8,810.1 A30.0,30.0 0 0 0 638.2,789.9 L428.2,204.9 A30.0,30.0 0 0 0 371.8,225.1 Z" fill="none" stroke="#050505" stroke-width="28"/><path d="M347.3,233.9 L557.3,818.9 A56.0,56.0 0 0 0 662.7,781.1 L452.7,196.1 A56.0,56.0 0 0 0 347.3,233.9 Z M371.8,225.1 L581.8,810.1 A30.0,30.0 0 0 0 638.2,789.9 L428.2,204.9 A30.0,30.0 0 0 0 371.8,225.1 Z" fill="#4e1116" fill-rule="evenodd"/></g></g><g clip-path="url(#c_l2)"><g clip-path="url(#h1p)"><path d="M662.7,818.9 L872.7,233.9 A56.0,56.0 0 0 0 767.3,196.1 L557.3,781.1 A56.0,56.0 0 0 0 662.7,818.9 Z" fill="none" stroke="#050505" stroke-width="28"/><path d="M638.2,810.1 L848.2,225.1 A30.0,30.0 0 0 0 791.8,204.9 L581.8,789.9 A30.0,30.0 0 0 0 638.2,810.1 Z" fill="none" stroke="#050505" stroke-width="28"/><path d="M662.7,818.9 L872.7,233.9 A56.0,56.0 0 0 0 767.3,196.1 L557.3,781.1 A56.0,56.0 0 0 0 662.7,818.9 Z M638.2,810.1 L848.2,225.1 A30.0,30.0 0 0 0 791.8,204.9 L581.8,789.9 A30.0,30.0 0 0 0 638.2,810.1 Z" fill="url(#g)" fill-rule="evenodd"/></g></g><g clip-path="url(#c_l3)"><g clip-path="url(#h1n)"><path d="M347.3,233.9 L557.3,818.9 A56.0,56.0 0 0 0 662.7,781.1 L452.7,196.1 A56.0,56.0 0 0 0 347.3,233.9 Z" fill="none" stroke="#050505" stroke-width="28"/><path d="M371.8,225.1 L581.8,810.1 A30.0,30.0 0 0 0 638.2,789.9 L428.2,204.9 A30.0,30.0 0 0 0 371.8,225.1 Z" fill="none" stroke="#050505" stroke-width="28"/><path d="M347.3,233.9 L557.3,818.9 A56.0,56.0 0 0 0 662.7,781.1 L452.7,196.1 A56.0,56.0 0 0 0 347.3,233.9 Z M371.8,225.1 L581.8,810.1 A30.0,30.0 0 0 0 638.2,789.9 L428.2,204.9 A30.0,30.0 0 0 0 371.8,225.1 Z" fill="#4e1116" fill-rule="evenodd"/></g></g><g clip-path="url(#c_l1)"><g clip-path="url(#h2p)"><path d="M262.0,641.0 L548.0,641.0 A56.0,56.0 0 0 0 548.0,529.0 L262.0,529.0 A56.0,56.0 0 0 0 262.0,641.0 Z" fill="none" stroke="#050505" stroke-width="28"/><path d="M262.0,615.0 L548.0,615.0 A30.0,30.0 0 0 0 548.0,555.0 L262.0,555.0 A30.0,30.0 0 0 0 262.0,615.0 Z" fill="none" stroke="#050505" stroke-width="28"/><path d="M262.0,641.0 L548.0,641.0 A56.0,56.0 0 0 0 548.0,529.0 L262.0,529.0 A56.0,56.0 0 0 0 262.0,641.0 Z M262.0,615.0 L548.0,615.0 A30.0,30.0 0 0 0 548.0,555.0 L262.0,555.0 A30.0,30.0 0 0 0 262.0,615.0 Z" fill="url(#g)" fill-rule="evenodd"/></g></g><g clip-path="url(#c_bar)"><g clip-path="url(#h2n)"><path d="M347.3,196.1 L137.3,781.1 A56.0,56.0 0 0 0 242.7,818.9 L452.7,233.9 A56.0,56.0 0 0 0 347.3,196.1 Z" fill="none" stroke="#050505" stroke-width="28"/><path d="M371.8,204.9 L161.8,789.9 A30.0,30.0 0 0 0 218.2,810.1 L428.2,225.1 A30.0,30.0 0 0 0 371.8,204.9 Z" fill="none" stroke="#050505" stroke-width="28"/><path d="M347.3,196.1 L137.3,781.1 A56.0,56.0 0 0 0 242.7,818.9 L452.7,233.9 A56.0,56.0 0 0 0 347.3,196.1 Z M371.8,204.9 L161.8,789.9 A30.0,30.0 0 0 0 218.2,810.1 L428.2,225.1 A30.0,30.0 0 0 0 371.8,204.9 Z" fill="url(#g)" fill-rule="evenodd"/></g></g><g clip-path="url(#c_l2)"><g clip-path="url(#h3p)"><path d="M262.0,641.0 L548.0,641.0 A56.0,56.0 0 0 0 548.0,529.0 L262.0,529.0 A56.0,56.0 0 0 0 262.0,641.0 Z" fill="none" stroke="#050505" stroke-width="28"/><path d="M262.0,615.0 L548.0,615.0 A30.0,30.0 0 0 0 548.0,555.0 L262.0,555.0 A30.0,30.0 0 0 0 262.0,615.0 Z" fill="none" stroke="#050505" stroke-width="28"/><path d="M262.0,641.0 L548.0,641.0 A56.0,56.0 0 0 0 548.0,529.0 L262.0,529.0 A56.0,56.0 0 0 0 262.0,641.0 Z M262.0,615.0 L548.0,615.0 A30.0,30.0 0 0 0 548.0,555.0 L262.0,555.0 A30.0,30.0 0 0 0 262.0,615.0 Z" fill="url(#g)" fill-rule="evenodd"/></g></g><g clip-path="url(#c_bar)"><g clip-path="url(#h3n)"><path d="M347.3,233.9 L557.3,818.9 A56.0,56.0 0 0 0 662.7,781.1 L452.7,196.1 A56.0,56.0 0 0 0 347.3,233.9 Z" fill="none" stroke="#050505" stroke-width="28"/><path d="M371.8,225.1 L581.8,810.1 A30.0,30.0 0 0 0 638.2,789.9 L428.2,204.9 A30.0,30.0 0 0 0 371.8,225.1 Z" fill="none" stroke="#050505" stroke-width="28"/><path d="M347.3,233.9 L557.3,818.9 A56.0,56.0 0 0 0 662.7,781.1 L452.7,196.1 A56.0,56.0 0 0 0 347.3,233.9 Z M371.8,225.1 L581.8,810.1 A30.0,30.0 0 0 0 638.2,789.9 L428.2,204.9 A30.0,30.0 0 0 0 371.8,225.1 Z" fill="#4e1116" fill-rule="evenodd"/></g></g></g></svg>